<svg width="22" height="22" viewBox="0 0 22 22" fill="none" xmlns="http://www.w3.org/2000/svg">
<path d="M3.66602 6.92572H6.11046" stroke="#667085" stroke-linecap="round" stroke-linejoin="round"/>
<path d="M3.66602 15.0742H8.5549" stroke="#667085" stroke-linecap="round" stroke-linejoin="round"/>
<path d="M15.8887 15.0741H18.3331" stroke="#667085" stroke-linecap="round" stroke-linejoin="round"/>
<path d="M13.4434 6.92578H18.3322" stroke="#667085" stroke-linecap="round" stroke-linejoin="round"/>
<path d="M6.11133 6.92589C6.11133 6.16658 6.11133 5.78693 6.23538 5.48744C6.40077 5.08814 6.71802 4.77089 7.11732 4.60549C7.41681 4.48145 7.79646 4.48145 8.55577 4.48145C9.31508 4.48145 9.69472 4.48145 9.99425 4.60549C10.3935 4.77089 10.7108 5.08814 10.8762 5.48744C11.0002 5.78693 11.0002 6.16658 11.0002 6.92589C11.0002 7.6852 11.0002 8.06485 10.8762 8.36434C10.7108 8.76364 10.3935 9.08089 9.99425 9.24629C9.69472 9.37033 9.31508 9.37033 8.55577 9.37033C7.79646 9.37033 7.41681 9.37033 7.11732 9.24629C6.71802 9.08089 6.40077 8.76364 6.23538 8.36434C6.11133 8.06485 6.11133 7.6852 6.11133 6.92589Z" stroke="#667085"/>
<path d="M11 15.0738C11 14.3145 11 13.9349 11.124 13.6354C11.2894 13.2361 11.6067 12.9188 12.006 12.7534C12.3055 12.6294 12.6851 12.6294 13.4444 12.6294C14.2038 12.6294 14.5834 12.6294 14.8829 12.7534C15.2822 12.9188 15.5995 13.2361 15.7649 13.6354C15.8889 13.9349 15.8889 14.3145 15.8889 15.0738C15.8889 15.8332 15.8889 16.2128 15.7649 16.5123C15.5995 16.9116 15.2822 17.2289 14.8829 17.3943C14.5834 17.5183 14.2038 17.5183 13.4444 17.5183C12.6851 17.5183 12.3055 17.5183 12.006 17.3943C11.6067 17.2289 11.2894 16.9116 11.124 16.5123C11 16.2128 11 15.8332 11 15.0738Z" stroke="#667085"/>
</svg>
