<svg width="18" height="18" viewBox="0 0 18 18" fill="none" xmlns="http://www.w3.org/2000/svg">
<path d="M8.32393 2.25146C5.58725 2.25638 4.15418 2.32357 3.23834 3.23939C2.25 4.2277 2.25 5.81837 2.25 8.99968C2.25 12.181 2.25 13.7717 3.23834 14.76C4.22668 15.7483 5.8174 15.7483 8.99885 15.7483C12.1802 15.7483 13.771 15.7483 14.7593 14.76C15.6751 13.8442 15.7423 12.4112 15.7473 9.6746" stroke="#101828" stroke-linecap="round" stroke-linejoin="round"/>
<path d="M15.3612 2.63829L11.1992 6.78878M15.3612 2.63829C14.9907 2.2674 12.495 2.30198 11.9674 2.30948M15.3612 2.63829C15.7316 3.00917 15.6971 5.50762 15.6896 6.03581" stroke="#101828" stroke-linecap="round" stroke-linejoin="round"/>
</svg>
