<svg width="18" height="18" viewBox="0 0 18 18" fill="none" xmlns="http://www.w3.org/2000/svg">
<path d="M8.32393 2.25159C5.58725 2.25651 4.15418 2.32369 3.23834 3.23951C2.25 4.22782 2.25 5.8185 2.25 8.9998C2.25 12.1812 2.25 13.7718 3.23834 14.7601C4.22668 15.7485 5.8174 15.7485 8.99885 15.7485C12.1802 15.7485 13.771 15.7485 14.7593 14.7601C15.6751 13.8444 15.7423 12.4113 15.7473 9.67473" stroke="white" stroke-linecap="round" stroke-linejoin="round"/>
<path d="M15.3612 2.63816L11.1992 6.78866M15.3612 2.63816C14.9907 2.26728 12.495 2.30186 11.9674 2.30936M15.3612 2.63816C15.7316 3.00905 15.6971 5.5075 15.6896 6.03569" stroke="white" stroke-linecap="round" stroke-linejoin="round"/>
</svg>
