<svg width="24" height="24" viewBox="0 0 24 24" fill="none" xmlns="http://www.w3.org/2000/svg">
<path fill-rule="evenodd" clip-rule="evenodd" d="M6.749 7.5C5.62183 7.5 4.54083 7.94777 3.7438 8.7448C2.94677 9.54183 2.499 10.6228 2.499 11.75C2.499 12.8772 2.94677 13.9582 3.7438 14.7552C4.54083 15.5522 5.62183 16 6.749 16C7.346 16 7.794 15.893 8.156 15.716C8.518 15.54 8.835 15.274 9.142 14.9C9.682 14.24 10.125 13.342 10.709 12.159C10.826 11.922 10.949 11.674 11.079 11.415L11.419 10.725C12 9.544 12.536 8.455 13.196 7.65C13.606 7.149 14.086 6.727 14.686 6.435C15.286 6.143 15.966 6 16.749 6C17.6601 6 18.5582 6.21651 19.3692 6.63168C20.1802 7.04685 20.8809 7.64879 21.4136 8.38792C21.9464 9.12704 22.2958 9.98217 22.4332 10.8829C22.5706 11.7835 22.492 12.704 22.2039 13.5683C21.9158 14.4327 21.4264 15.2162 20.7761 15.8543C20.1258 16.4924 19.3331 16.9668 18.4635 17.2385C17.5938 17.5101 16.672 17.5712 15.7741 17.4168C14.8762 17.2623 14.0279 16.8967 13.299 16.35C13.1399 16.2307 13.0347 16.053 13.0065 15.8561C12.9784 15.6592 13.0297 15.4591 13.149 15.3C13.2683 15.1409 13.446 15.0357 13.6429 15.0075C13.8398 14.9794 14.0399 15.0307 14.199 15.15C14.7377 15.5541 15.3648 15.8243 16.0285 15.9385C16.6921 16.0526 17.3734 16.0075 18.0162 15.8067C18.659 15.6059 19.2449 15.2552 19.7256 14.7836C20.2062 14.3119 20.568 13.7328 20.7809 13.094C20.9939 12.4551 21.052 11.7748 20.9504 11.1091C20.8488 10.4433 20.5905 9.81129 20.1968 9.26498C19.803 8.71867 19.2851 8.27376 18.6856 7.96689C18.0862 7.66003 17.4224 7.5 16.749 7.5C16.152 7.5 15.704 7.607 15.342 7.784C14.98 7.96 14.663 8.226 14.356 8.6C13.816 9.26 13.373 10.158 12.789 11.341C12.672 11.578 12.549 11.826 12.419 12.085L12.079 12.775C11.498 13.956 10.962 15.045 10.302 15.851C9.892 16.351 9.412 16.773 8.812 17.065C8.212 17.357 7.532 17.5 6.749 17.5C5.83794 17.4998 4.93997 17.2832 4.12906 16.8679C3.31815 16.4527 2.61753 15.8506 2.08492 15.1115C1.55231 14.3723 1.20297 13.5172 1.06567 12.6165C0.928372 11.7159 1.00705 10.7955 1.29523 9.93122C1.58341 9.06694 2.07283 8.28351 2.72317 7.64548C3.37351 7.00745 4.16615 6.53308 5.03578 6.26147C5.9054 5.98986 6.82712 5.92878 7.72499 6.08326C8.62285 6.23775 9.47116 6.60337 10.2 7.15C10.2788 7.20916 10.3452 7.28326 10.3953 7.36807C10.4455 7.45288 10.4784 7.54674 10.4923 7.64429C10.5062 7.74184 10.5007 7.84116 10.4762 7.9366C10.4517 8.03203 10.4087 8.12171 10.3495 8.2005C10.2903 8.27929 10.2162 8.34566 10.1314 8.39582C10.0466 8.44597 9.95276 8.47893 9.85521 8.49282C9.75767 8.5067 9.65834 8.50123 9.5629 8.47673C9.46747 8.45222 9.37779 8.40916 9.299 8.35C8.56409 7.79682 7.66883 7.4984 6.749 7.5Z" fill="black"/>
</svg>
