<svg width="24" height="24" viewBox="0 0 24 24" fill="none" xmlns="http://www.w3.org/2000/svg">
<path d="M19.8 5.62C21.0512 7.13584 21.8178 8.99291 22 10.95H19.94C19.74 9.52 19.16 8.17 18.26 7.05L19.8 5.62ZM13 2C14.96 2.19 16.81 2.95 18.33 4.21L16.9 5.64C15.7707 4.75326 14.4236 4.18678 13 4V2ZM11 2.01C9.04 2.21 7.19 2.98 5.67 4.22L7.1 5.64C8.23035 4.75684 9.57738 4.19386 11 4.01V2.01ZM4.26 5.62L5.63 7.01V7.05C4.74684 8.18035 4.18386 9.52738 4 10.95H2C2.21 8.99 3 7.13 4.26 5.62ZM2 13.95V18.95L3.6 17.35C5.38 20.12 8.47 21.95 12 21.95C16.82 21.95 20.87 18.5 21.8 13.95H19.75C18.86 17.4 15.72 19.95 12 19.95C9.05 19.95 6.39 18.34 5 15.95L7 13.95H2ZM12 16.95L13.56 13.53L17 11.95L13.56 10.39L12 6.95L10.43 10.39L7 11.95L10.43 13.53L12 16.95Z" fill="#19525A"/>
</svg>
